<?xml version="1.0" encoding="UTF-8"?>
<svg id="_Слой_2" data-name="Слой 2" xmlns="http://www.w3.org/2000/svg" xmlns:xlink="http://www.w3.org/1999/xlink" viewBox="0 0 15.27 10.97">
  <defs>
    <style>
      .cls-1 {
        fill: none;
      }

      .cls-2 {
        fill-rule: evenodd;
      }

      .cls-3 {
        clip-path: url(#clippath);
      }
    </style>
    <clipPath id="clippath">
      <rect class="cls-1" width="15.27" height="10.97"/>
    </clipPath>
  </defs>
  <g id="_Слой_1-2" data-name="Слой 1">
    <g class="cls-3">
      <path class="cls-2" d="M7.64,2.28c2.22,0,4.35.85,5.95,2.38.12.12.31.12.43,0l1.16-1.17c.06-.06.09-.14.09-.23,0-.09-.04-.17-.1-.23C10.96-1.01,4.31-1.01.1,3.03.04,3.09,0,3.17,0,3.26c0,.09.03.17.09.23l1.16,1.17c.12.12.31.12.43,0,1.61-1.53,3.74-2.38,5.95-2.38ZM7.64,6.07c1.22,0,2.39.45,3.29,1.27.12.12.31.11.43,0l1.15-1.17c.06-.06.09-.14.09-.23,0-.09-.04-.17-.1-.23-2.75-2.56-7-2.56-9.75,0-.06.06-.1.14-.1.23,0,.09.03.17.09.23l1.15,1.17c.12.12.31.12.43,0,.9-.82,2.07-1.27,3.29-1.27ZM9.95,8.63c0,.09-.03.17-.09.23l-2,2.02c-.06.06-.14.09-.22.09s-.16-.03-.22-.09l-2-2.02c-.06-.06-.1-.14-.09-.23,0-.09.04-.17.1-.23,1.28-1.08,3.14-1.08,4.42,0,.06.06.1.14.1.23Z"/>
    </g>
  </g>
</svg>