<svg width="18" height="18" viewBox="0 0 18 18" fill="none" xmlns="http://www.w3.org/2000/svg">
<path fill-rule="evenodd" clip-rule="evenodd" d="M5.03239 2.75493C3.2001 4.01782 2 6.13104 2 8.52299C2 12.389 5.13401 15.523 9 15.523C11.3918 15.523 13.5049 14.323 14.7678 12.4909C14.5146 12.5123 14.2585 12.5233 14 12.5233C9.02944 12.5233 5 8.49382 5 3.52326C5 3.26458 5.01094 3.00831 5.03239 2.75493ZM0 8.52299C0 4.5648 2.55459 1.20586 6.10211 0L7.37072 1.26868C7.13064 1.97484 7 2.73276 7 3.52326C7 7.38925 10.134 10.5233 14 10.5233C14.7904 10.5233 15.5482 10.3927 16.2542 10.1527L17.5228 11.4213C16.3168 14.9686 12.958 17.523 9 17.523C4.02944 17.523 0 13.4936 0 8.52299Z" fill="#4B5EFC"/>
</svg>
